PathFileType	4	(X/Y/Z)	/Users/itak/Documents/Research/Walk-IL/dataset/trc/00143_00007.trc
DataRate	CameraRate	NumFrames	NumMarkers	Units	OrigDataRate	OrigDataStartFrame	OrigNumFrames
100.000000	100.000000	4	53	mm	100.000000	66	535
Frame#	Time	RPSI			LPSI			L3			STRN			T10			C7			CLAV			RBAK			LBAK			LSHO			LUPA			LAEL			LAOL			LWTS			LWPS			LFRA			LIFD			LHPS			LHTS			RSHO			RUPA			RAEL			RAOL			RWTS			RWPS			RFRA			RIFD			RHTS			RHPS			RBHD			LFHD			RFHD			LBHD			LHIP			RHIP			RASI			LASI			LKNE			LTHI			LANK			LTIP			LTOE			LMT1			LMT5			LHEE			RKNE			RTHI			RANK			RTIP			RTOE			RMT1			RMT5			RHEE			
		X1	Y1	Z1	X2	Y2	Z2	X3	Y3	Z3	X4	Y4	Z4	X5	Y5	Z5	X6	Y6	Z6	X7	Y7	Z7	X8	Y8	Z8	X9	Y9	Z9	X10	Y10	Z10	X11	Y11	Z11	X12	Y12	Z12	X13	Y13	Z13	X14	Y14	Z14	X15	Y15	Z15	X16	Y16	Z16	X17	Y17	Z17	X18	Y18	Z18	X19	Y19	Z19	X20	Y20	Z20	X21	Y21	Z21	X22	Y22	Z22	X23	Y23	Z23	X24	Y24	Z24	X25	Y25	Z25	X26	Y26	Z26	X27	Y27	Z27	X28	Y28	Z28	X29	Y29	Z29	X30	Y30	Z30	X31	Y31	Z31	X32	Y32	Z32	X33	Y33	Z33	X34	Y34	Z34	X35	Y35	Z35	X36	Y36	Z36	X37	Y37	Z37	X38	Y38	Z38	X39	Y39	Z39	X40	Y40	Z40	X41	Y41	Z41	X42	Y42	Z42	X43	Y43	Z43	X44	Y44	Z44	X45	Y45	Z45	X46	Y46	Z46	X47	Y47	Z47	X48	Y48	Z48	X49	Y49	Z49	X50	Y50	Z50	X51	Y51	Z51	X52	Y52	Z52	X53	Y53	Z53	

67	0.66	-789.3894653320312	1129.5048828125	1230.936157226562	-785.5060424804688	1131.280639648438	1096.5341796875	-794.477294921875	1160.6337890625	1161.384399414062	-592.7039794921875	1365.27587890625	1165.36572265625	-844.5149536132812	1306.330200195312	1155.720458984375	-824.3370971679688	1599.567016601562	1141.888427734375	-637.18115234375	1497.508422851562	1159.111572265625	-872.8715209960938	1412.738403320312	1226.300048828125	-826.0435180664062	1578.504028320312	1040.052734375	-736.6151123046875	1567.249633789062	974.86181640625	-752.0137329101562	1434.156494140625	905.4583740234375	-731.0416870117188	1215.294677734375	886.5385131835938	-797.6046752929688	1202.219482421875	944.0460205078125	-616.5135498046875	963.5120239257812	934.4341430664062	-697.5779418945312	933.4135131835938	908.0936279296875	-708.793212890625	1099.896850585938	884.6587524414062	-590.5650024414062	771.2530517578125	953.1763916015625	-664.9697875976562	860.09814453125	909.6303100585938	-598.56494140625	876.1900634765625	925.3612670898438	-777.3638916015625	1582.762817382812	1324.60302734375	-796.4300537109375	1510.1044921875	1388.137939453125	-801.7285766601562	1216.201171875	1409.696044921875	-797.64794921875	1213.241821289062	1314.173095703125	-649.13232421875	977.2342529296875	1417.93212890625	-727.0250244140625	959.4822998046875	1440.675537109375	-778.0796508789062	1144.080810546875	1429.019897460938	-614.2415161132812	783.8322143554688	1411.588500976562	-617.2418212890625	871.3013916015625	1430.071533203125	-687.4677734375	863.9154663085938	1450.171508789062	-775.7221069335938	1782.53271484375	1227.56103515625	-623.9894409179688	1834.2958984375	1076.702392578125	-609.3912353515625	1841.42236328125	1206.01025390625	-797.610595703125	1780.45361328125	1094.424682617188	-691.364013671875	1040.38330078125	991.3118286132812	-663.9056396484375	1032.890747070312	1350.274536132812	-582.5468139648438	1108.353149414062	1300.886962890625	-583.02294921875	1107.525512695312	1034.12841796875	-676.611328125	539.6780395507812	1023.992248535156	-693.4395751953125	686.3505249023438	995.053955078125	-791.634033203125	39.21914291381836	1033.22998046875	-778.30712890625	294.2488403320312	997.0361328125	-565.841552734375	41.76993942260742	1110.46435546875	-649.6660766601562	43.64482116699219	1137.016357421875	-663.9093017578125	40.55385208129883	1020.290771484375	-866.73193359375	41.61727142333984	1089.181762695312	-683.4429931640625	540.9011840820312	1311.386352539062	-648.0791625976562	819.7273559570312	1342.219116210938	-808.1773681640625	34.1332893371582	1288.562744140625	-716.0679931640625	408.3035583496094	1320.62890625	-574.4053344726562	47.49748611450195	1245.01513671875	-632.9652709960938	39.07382965087891	1200.87548828125	-675.63037109375	42.2238883972168	1316.69873046875	-864.3829956054688	35.45643615722656	1238.737060546875	
68	0.67	-789.2263793945312	1129.521484375	1231.000610351562	-785.3580322265625	1131.269897460938	1096.640747070312	-794.3844604492188	1160.6455078125	1161.413208007812	-592.5153198242188	1365.2978515625	1165.370483398438	-844.3577270507812	1306.32568359375	1155.846557617188	-824.180419921875	1599.551391601562	1142.035522460938	-637.0094604492188	1497.507080078125	1159.171997070312	-872.7504272460938	1412.739013671875	1226.39404296875	-825.9489135742188	1578.53076171875	1040.133422851562	-736.5150146484375	1567.308837890625	974.96435546875	-751.821044921875	1434.249267578125	905.503662109375	-730.4341430664062	1215.401000976562	886.5221557617188	-797.0635375976562	1202.238525390625	943.940185546875	-615.5491943359375	963.75537109375	934.4931640625	-696.6209716796875	933.5818481445312	908.028564453125	-707.9898681640625	1100.040893554688	884.6168823242188	-589.386962890625	771.552978515625	953.1755981445312	-663.8803100585938	860.2826538085938	909.5774536132812	-597.5206909179688	876.4852905273438	925.3953247070312	-777.15869140625	1582.744750976562	1324.731689453125	-796.2811279296875	1510.085571289062	1388.239624023438	-801.5087280273438	1216.150268554688	1409.762084960938	-797.4487915039062	1213.24267578125	1314.279907226562	-648.7606811523438	977.300537109375	1417.953002929688	-726.6249389648438	959.5460205078125	1440.732177734375	-777.786865234375	1144.06005859375	1429.1025390625	-613.7525634765625	783.9285888671875	1411.627319335938	-616.850830078125	871.390869140625	1430.095336914062	-686.9973754882812	863.978759765625	1450.193969726562	-775.5372924804688	1782.510131835938	1227.701416015625	-623.8930053710938	1834.318603515625	1076.810546875	-609.2049560546875	1841.410888671875	1206.146484375	-797.4515380859375	1780.439453125	1094.568359375	-691.3143920898438	1040.406494140625	991.3439331054688	-663.5805053710938	1032.9794921875	1350.378173828125	-582.3095703125	1108.346557617188	1300.850708007812	-582.8909301757812	1107.523315429688	1034.0810546875	-676.572021484375	539.6717529296875	1023.9482421875	-693.401123046875	686.3572387695312	995.0457153320312	-791.6334228515625	39.21577072143555	1033.21923828125	-778.3065795898438	294.2657470703125	997.0252075195312	-565.84423828125	41.77157211303711	1110.460693359375	-649.663818359375	43.65447616577148	1137.013793945312	-663.8997192382812	40.54683685302734	1020.278442382812	-866.729736328125	41.63622283935547	1089.169799804688	-683.2886352539062	540.8801879882812	1311.362060546875	-647.8324584960938	819.7062377929688	1342.185913085938	-808.1819458007812	34.14249420166016	1288.555908203125	-715.9636840820312	408.2881164550781	1320.60009765625	-574.409912109375	47.49358749389648	1245.009155273438	-632.9652709960938	39.06691741943359	1200.866943359375	-675.6275634765625	42.22829818725586	1316.690795898438	-864.3839111328125	35.45571136474609	1238.737182617188	
69	0.68	-789.083984375	1129.5341796875	1231.062622070312	-785.2179565429688	1131.257446289062	1096.741088867188	-794.3140258789062	1160.655395507812	1161.436889648438	-592.3347778320312	1365.318237304688	1165.379028320312	-844.20947265625	1306.328125	1155.978759765625	-824.0313110351562	1599.538696289062	1142.184326171875	-636.8513793945312	1497.510375976562	1159.230590820312	-872.6449584960938	1412.741943359375	1226.492553710938	-825.8684692382812	1578.561401367188	1040.217407226562	-736.4229125976562	1567.372680664062	975.0658569335938	-751.628173828125	1434.3505859375	905.5537719726562	-729.8323364257812	1215.51611328125	886.5025634765625	-796.52978515625	1202.265380859375	943.832763671875	-614.6644897460938	963.9904174804688	934.5243530273438	-695.7119140625	933.7463989257812	907.9521484375	-707.2068481445312	1100.189819335938	884.5680541992188	-588.280029296875	771.8262329101562	953.145263671875	-662.862548828125	860.4717407226562	909.4988403320312	-596.5155639648438	876.7674560546875	925.40234375	-776.9509887695312	1582.731323242188	1324.866821289062	-796.1240844726562	1510.070922851562	1388.34423828125	-801.2573852539062	1216.102172851562	1409.834106445312	-797.23046875	1213.2578125	1314.378784179688	-648.3760375976562	977.3670654296875	1417.960571289062	-726.224609375	959.6099243164062	1440.768188476562	-777.4442749023438	1144.040283203125	1429.187133789062	-613.2453002929688	784.021484375	1411.631225585938	-616.43115234375	871.4767456054688	1430.08203125	-686.511962890625	864.0322265625	1450.189453125	-775.3663940429688	1782.493530273438	1227.8271484375	-623.7899780273438	1834.332641601562	1076.918212890625	-609.0458374023438	1841.412353515625	1206.270629882812	-797.2894897460938	1780.41162109375	1094.702880859375	-691.270751953125	1040.432861328125	991.3827514648438	-663.2868041992188	1033.049682617188	1350.464477539062	-582.0858764648438	1108.339721679688	1300.818603515625	-582.7535400390625	1107.523559570312	1034.03369140625	-676.5278930664062	539.6685180664062	1023.911926269531	-693.356689453125	686.3636474609375	995.0438232421875	-791.6300048828125	39.21351623535156	1033.20751953125	-778.3021850585938	294.2792053222656	997.0159912109375	-565.8460083007812	41.77424240112305	1110.458129882812	-649.6631469726562	43.66416549682617	1137.011596679688	-663.890380859375	40.54153823852539	1020.264343261719	-866.7272338867188	41.65345001220703	1089.159423828125	-683.1263427734375	540.8622436523438	1311.33984375	-647.59033203125	819.6856079101562	1342.15625	-808.1859130859375	34.14829635620117	1288.550659179688	-715.8505859375	408.2731323242188	1320.57177734375	-574.4143676757812	47.49117279052734	1245.003784179688	-632.9667358398438	39.06180191040039	1200.859497070312	-675.6224975585938	42.23205947875977	1316.684448242188	-864.3854370117188	35.45512008666992	1238.737060546875	
70	0.6900000000000001	-788.9590454101562	1129.543090820312	1231.1240234375	-785.08642578125	1131.244506835938	1096.835571289062	-794.259765625	1160.66455078125	1161.458862304688	-592.157470703125	1365.338256835938	1165.392700195312	-844.070068359375	1306.335571289062	1156.115112304688	-823.8934936523438	1599.529174804688	1142.333129882812	-636.7044067382812	1497.518310546875	1159.2880859375	-872.5488891601562	1412.743896484375	1226.597778320312	-825.8009643554688	1578.594116210938	1040.3056640625	-736.3397827148438	1567.440185546875	975.1680297851562	-751.4345703125	1434.45849609375	905.6077270507812	-729.243896484375	1215.637451171875	886.4814453125	-796.0042724609375	1202.296142578125	943.7279663085938	-613.8434448242188	964.2127685546875	934.5220336914062	-694.8433227539062	933.9052734375	907.8662719726562	-706.4558715820312	1100.343994140625	884.5140380859375	-587.245361328125	772.0706176757812	953.0833740234375	-661.9097290039062	860.6652221679688	909.3970947265625	-595.550048828125	877.0368041992188	925.3806762695312	-776.7461547851562	1582.721069335938	1325.004150390625	-795.95654296875	1510.059814453125	1388.453491210938	-800.9808959960938	1216.056274414062	1409.913452148438	-796.9990844726562	1213.284912109375	1314.467651367188	-647.9808959960938	977.4344482421875	1417.954223632812	-725.8251953125	959.671630859375	1440.781127929688	-777.0632934570312	1144.019165039062	1429.272827148438	-612.7161865234375	784.1113891601562	1411.597045898438	-615.9701538085938	871.563720703125	1430.0322265625	-686.0070190429688	864.0706787109375	1450.161987304688	-775.2095336914062	1782.482666015625	1227.937622070312	-623.6746826171875	1834.3359375	1077.027465820312	-608.9122314453125	1841.421752929688	1206.382568359375	-797.1264038085938	1780.37548828125	1094.828735351562	-691.2182006835938	1040.461669921875	991.4237670898438	-663.0275268554688	1033.095581054688	1350.527587890625	-581.8773803710938	1108.332153320312	1300.790771484375	-582.61083984375	1107.52587890625	1033.986450195312	-676.4812622070312	539.668701171875	1023.883850097656	-693.3092651367188	686.3696899414062	995.0477905273438	-791.6248168945312	39.21204376220703	1033.195556640625	-778.295654296875	294.2890930175781	997.0096435546875	-565.8472900390625	41.7783203125	1110.4560546875	-649.6644287109375	43.6735954284668	1137.009765625	-663.881103515625	40.53750610351562	1020.2490234375	-866.72412109375	41.66907501220703	1089.150390625	-682.9564208984375	540.8465576171875	1311.31884765625	-647.3551025390625	819.66552734375	1342.129638671875	-808.18896484375	34.15213012695312	1288.546508789062	-715.729248046875	408.2586669921875	1320.543334960938	-574.4185180664062	47.48965454101562	1244.998901367188	-632.9694213867188	39.05715560913086	1200.853881835938	-675.61572265625	42.23557662963867	1316.679443359375	-864.3871459960938	35.4547233581543	1238.73681640625	
